<svg width="48" height="48" viewBox="0 0 48 48" fill="none" xmlns="http://www.w3.org/2000/svg">
<path d="M40.7436 0.383301H7.78497C3.88443 0.383301 0.722412 3.54531 0.722412 7.44586V40.4044C0.722412 44.305 3.88443 47.467 7.78497 47.467H40.7436C44.6441 47.467 47.8061 44.305 47.8061 40.4044V7.44586C47.8061 3.54531 44.6441 0.383301 40.7436 0.383301Z" fill="#1877F2"/>
<path d="M33.4235 30.7302L34.4718 23.9252H27.9426V19.5111C27.9426 17.6535 28.8531 15.8326 31.7774 15.8326H34.7477V10.0391C34.7477 10.0391 32.0533 9.57935 29.4784 9.57935C24.0987 9.57935 20.5858 12.8347 20.5858 18.7386V23.9252H14.6084V30.7302H20.5858V47.467H27.9426V30.7302H33.4235Z" fill="white"/>
</svg>
