<svg width="47" height="46" viewBox="0 0 47 46" fill="none" xmlns="http://www.w3.org/2000/svg">
<path d="M15.6685 23C15.6685 18.766 19.1747 15.3327 23.5009 15.3327C27.8272 15.3327 31.3352 18.766 31.3352 23C31.3352 27.234 27.8272 30.6673 23.5009 30.6673C19.1747 30.6673 15.6685 27.234 15.6685 23ZM11.4335 23C11.4335 29.5228 16.8361 34.8102 23.5009 34.8102C30.1658 34.8102 35.5684 29.5228 35.5684 23C35.5684 16.4772 30.1658 11.1898 23.5009 11.1898C16.8361 11.1898 11.4335 16.4772 11.4335 23ZM33.226 10.7215C33.2254 12.2458 34.4875 13.482 36.045 13.4826C37.6025 13.4832 38.8656 12.248 38.8662 10.7237C38.8669 9.1994 37.6048 7.96321 36.0472 7.9626C34.4905 7.96331 33.2274 9.19792 33.226 10.7215ZM14.0066 41.7215C11.7153 41.6193 10.47 41.2458 9.64234 40.9302C8.54513 40.5122 7.76227 40.0143 6.93917 39.2099C6.11607 38.4054 5.60657 37.64 5.1813 36.5661C4.85868 35.7565 4.47702 34.5373 4.37287 32.2949C4.25893 29.8706 4.23619 29.1423 4.23619 23.0002C4.23619 16.8581 4.26081 16.1318 4.37287 13.7054C4.47721 11.463 4.86169 10.2462 5.1813 9.43423C5.60845 8.36041 6.1172 7.59423 6.93917 6.78868C7.76114 5.98313 8.54325 5.48449 9.64234 5.06828C10.4696 4.75254 11.7153 4.37902 14.0066 4.27708C16.4837 4.16558 17.2279 4.14331 23.5009 4.14331C29.774 4.14331 30.5189 4.16742 32.9981 4.27708C35.2894 4.3792 36.5327 4.75548 37.3624 5.06828C38.4596 5.48449 39.2424 5.98423 40.0655 6.78868C40.8886 7.59313 41.3962 8.36041 41.8234 9.43423C42.146 10.2438 42.5277 11.463 42.6318 13.7054C42.7458 16.1318 42.7685 16.8581 42.7685 23.0002C42.7685 29.1423 42.7458 29.8685 42.6318 32.2949C42.5275 34.5373 42.144 35.7562 41.8234 36.5661C41.3962 37.64 40.8875 38.4061 40.0655 39.2099C39.2436 40.0136 38.4596 40.5122 37.3624 40.9302C36.5351 41.246 35.2894 41.6195 32.9981 41.7215C30.521 41.833 29.7768 41.8552 23.5009 41.8552C17.2251 41.8552 16.483 41.833 14.0066 41.7215ZM13.812 0.139288C11.3102 0.250792 9.6006 0.639032 8.10764 1.20759C6.56146 1.79474 5.25255 2.58244 3.94459 3.8605C2.63662 5.13857 1.83383 6.4216 1.23389 7.93482C0.65295 9.39688 0.256254 11.0691 0.142322 13.5176C0.0265091 15.9699 0 16.7539 0 23C0 29.2461 0.0265091 30.0301 0.142322 32.4824C0.256254 34.9311 0.65295 36.6031 1.23389 38.0652C1.83383 39.5775 2.63681 40.862 3.94459 42.1395C5.25237 43.417 6.56146 44.2036 8.10764 44.7924C9.60342 45.361 11.3102 45.7492 13.812 45.8607C16.3191 45.9722 17.1188 46 23.5009 46C29.883 46 30.6841 45.9741 33.1899 45.8607C35.6919 45.7492 37.4003 45.361 38.8942 44.7924C40.4395 44.2036 41.7493 43.4176 43.0573 42.1395C44.3653 40.8614 45.1664 39.5775 45.768 38.0652C46.3489 36.6031 46.7475 34.9309 46.8596 32.4824C46.9735 30.0282 47 29.2461 47 23C47 16.7539 46.9735 15.9699 46.8596 13.5176C46.7456 11.0689 46.3489 9.39596 45.768 7.93482C45.1664 6.42252 44.3632 5.14059 43.0573 3.8605C41.7514 2.58042 40.4395 1.79474 38.8961 1.20759C37.4003 0.639032 35.6917 0.248952 33.1918 0.139288C30.686 0.027784 29.8849 0 23.5028 0C17.1207 0 16.3191 0.025944 13.812 0.139288Z" fill="url(#paint0_radial_55_1094)"/>
<defs>
<radialGradient id="paint0_radial_55_1094" cx="0" cy="0" r="1" gradientUnits="userSpaceOnUse" gradientTransform="translate(99.9117 739.477) scale(981.712 960.825)">
<stop offset="0.09" stop-color="#FA8F21"/>
<stop offset="0.78" stop-color="#D82D7E"/>
</radialGradient>
</defs>
</svg>
