<svg width="48" height="48" viewBox="0 0 48 48" fill="none" xmlns="http://www.w3.org/2000/svg">
<path d="M40.9374 0.383301H7.97881C4.07827 0.383301 0.91626 3.54531 0.91626 7.44586V40.4044C0.91626 44.305 4.07827 47.467 7.97881 47.467H40.9374C44.8379 47.467 48 44.305 48 40.4044V7.44586C48 3.54531 44.8379 0.383301 40.9374 0.383301Z" fill="#1DA1F2"/>
<path d="M41.1029 14.3613C40.0127 15.0845 38.7327 15.4685 37.4245 15.4648C38.8231 14.6409 39.8704 13.3318 40.3672 11.7864C39.2078 12.7665 37.7468 13.3185 36.229 13.3497C35.2282 12.3248 33.9221 11.652 32.5065 11.4324C31.091 11.2128 29.6424 11.4582 28.3781 12.1318C27.1139 12.8053 26.1022 13.8708 25.4949 15.1681C24.8875 16.4655 24.7173 17.9248 25.0098 19.3272C22.4343 19.1912 19.9162 18.5151 17.619 17.3427C15.3218 16.1703 13.2968 14.5279 11.6756 12.5221C10.8822 13.9576 10.6499 15.6365 11.0237 17.2335C11.3975 18.8305 12.3507 20.232 13.6987 21.1664C12.6813 21.1807 11.6744 20.9605 10.756 20.5226C10.7807 22.004 11.3015 23.4342 12.2351 24.5845C13.1687 25.7349 14.4612 26.5389 15.9057 26.8679C14.9442 27.119 13.9384 27.1504 12.963 26.9599C13.3838 28.2722 14.2035 29.4205 15.308 30.2447C16.4124 31.0689 17.7466 31.528 19.1243 31.5579C16.2145 33.3231 12.8719 34.2463 9.46851 34.2247C12.3188 36.0856 15.6297 37.1189 19.0325 37.2096C22.4352 37.3004 25.7965 36.445 28.7419 34.7387C31.6874 33.0324 34.1016 30.5422 35.7157 27.5452C37.3298 24.5483 38.0805 21.1622 37.8843 17.7638C39.0977 16.7715 40.1794 15.628 41.1029 14.3613Z" fill="white"/>
</svg>
