<svg width="79" height="76" viewBox="0 0 79 76" fill="none" xmlns="http://www.w3.org/2000/svg">
<ellipse cx="39.5" cy="38" rx="39.5" ry="38" fill="white"/>
<path d="M53.625 53.5C53.625 53.9973 53.4275 54.4742 53.0758 54.8258C52.7242 55.1774 52.2473 55.375 51.75 55.375H25.5C25.0027 55.375 24.5258 55.1774 24.1742 54.8258C23.8225 54.4742 23.625 53.9973 23.625 53.5V36.625H18L37.3631 19.0225C37.7083 18.7084 38.1583 18.5343 38.625 18.5343C39.0917 18.5343 39.5417 18.7084 39.8869 19.0225L59.25 36.625H53.625V53.5ZM38.625 44.125C39.8682 44.125 41.0605 43.6311 41.9396 42.752C42.8186 41.873 43.3125 40.6807 43.3125 39.4375C43.3125 38.1943 42.8186 37.002 41.9396 36.1229C41.0605 35.2438 39.8682 34.75 38.625 34.75C37.3818 34.75 36.1895 35.2438 35.3104 36.1229C34.4314 37.002 33.9375 38.1943 33.9375 39.4375C33.9375 40.6807 34.4314 41.873 35.3104 42.752C36.1895 43.6311 37.3818 44.125 38.625 44.125Z" fill="#2D2D2D"/>
</svg>
