<svg width="68" height="68" viewBox="0 0 68 68" fill="none" xmlns="http://www.w3.org/2000/svg">
<rect width="68" height="68" rx="21" fill="white"/>
<g filter="url(#filter0_dd_199_233)">
<path d="M34 8.37732C48.7007 8.37732 60.6179 20.2946 60.6179 34.9952C60.6179 49.6959 48.7007 61.6132 34 61.6132C19.2993 61.6132 7.38208 49.6959 7.38208 34.9952C7.38208 20.2946 19.2993 8.37732 34 8.37732Z" fill="white"/>
</g>
<path d="M34 8.49704C48.6371 8.49704 60.5029 20.3628 60.5029 35C60.5029 49.6371 48.6371 61.5029 34 61.5029C19.3628 61.5029 7.49707 49.6371 7.49707 35C7.49707 20.3628 19.3628 8.49704 34 8.49704Z" fill="#447CAD"/>
<path d="M34 62C30.3552 62 26.8192 61.2861 23.4902 59.878C20.275 58.5181 17.3876 56.5714 14.9081 54.0919C12.4286 51.6124 10.4819 48.7249 9.12201 45.5098C7.71393 42.1808 7 38.6448 7 35C7 31.3552 7.71393 27.8192 9.12201 24.4902C10.4819 21.275 12.4286 18.3876 14.9081 15.9081C17.3876 13.4286 20.275 11.4819 23.4902 10.122C26.8192 8.71393 30.3552 8 34 8C37.6448 8 41.1808 8.71393 44.5098 10.122C47.7249 11.4819 50.6124 13.4286 53.0919 15.9081C55.5713 18.3876 57.5181 21.275 58.878 24.4902C60.2861 27.8192 61 31.3552 61 35C61 38.6448 60.2861 42.1808 58.878 45.5098C57.5181 48.7249 55.5713 51.6124 53.0919 54.0919C50.6124 56.5714 47.7249 58.5181 44.5098 59.878C41.1808 61.2861 37.6448 62 34 62ZM34 8.99418C30.489 8.99418 27.0834 9.6817 23.8775 11.0376C20.7808 12.3474 17.9996 14.2226 15.6111 16.6111C13.2226 18.9996 11.3474 21.7808 10.0376 24.8775C8.6817 28.0834 7.99418 31.489 7.99418 35C7.99418 38.5109 8.6817 41.9166 10.0376 45.1224C11.3474 48.2192 13.2226 51.0004 15.6111 53.3889C17.9996 55.7774 20.7808 57.6526 23.8775 58.9624C27.0834 60.3182 30.489 61.0058 34 61.0058C37.511 61.0058 40.9166 60.3182 44.1224 58.9624C47.2192 57.6526 50.0004 55.7774 52.3888 53.3889C54.7773 51.0004 56.6526 48.2192 57.9624 45.1224C59.3182 41.9166 60.0058 38.5109 60.0058 35C60.0058 31.489 59.3182 28.0834 57.9624 24.8775C56.6526 21.7808 54.7773 18.9996 52.3888 16.6111C50.0004 14.2226 47.2192 12.3474 44.1224 11.0376C40.9166 9.6817 37.511 8.99418 34 8.99418Z" fill="#EBEDF4"/>
<path d="M47.7575 21.163C50.6084 28.6289 52.5743 36.3342 52.6368 44.3809C40.7597 45.0224 29.3082 46.0291 18.7117 49.0864C15.8609 41.6205 13.8952 33.9153 13.8328 25.8689C25.7098 25.227 37.1612 24.2203 47.7575 21.163Z" fill="#ECF7F9"/>
<path d="M51.833 43.1675C40.5181 43.9842 29.5414 45.0311 19.2911 47.7868C16.8506 41.0249 15.1062 34.0715 14.8418 26.8465C26.1411 26.0512 37.0888 24.9965 47.2966 22.2037C49.7718 28.9713 51.5453 35.9325 51.833 43.1675Z" fill="#DBF0F6"/>
<path d="M51.1502 39.3537C49.4452 38.1355 47.6845 36.9839 45.8968 35.8737C45.8998 35.8694 44.2927 34.6013 43.0706 34.8371C41.9741 35.0481 40.9002 36.3783 40.694 36.638C40.0963 36.2752 39.496 35.9156 38.8943 35.5579C38.8958 35.5554 37.0074 34.1166 35.5776 34.3834C34.1473 34.647 32.7522 36.5248 32.753 36.5251C32.6212 36.6755 32.4895 36.8259 32.3579 36.9764C31.2242 36.3112 30.0865 35.6469 28.9523 34.977C28.9488 34.9806 26.644 33.2017 24.8882 33.5098C23.1182 33.8147 21.4007 36.2052 21.4109 36.2121C20.0626 37.8434 18.7678 39.5179 17.5745 41.2572C18.1509 43.3212 18.8102 45.3659 19.5308 47.3935C29.6117 44.7582 40.3672 43.7117 51.4347 42.8729C51.3777 41.6928 51.2817 40.5198 51.1502 39.3537Z" fill="#6CC077"/>
<path d="M35.7427 29.9053C35.7405 29.8732 35.7603 29.8425 35.7528 29.8101C35.6454 29.3112 34.916 29.0023 34.1216 29.1136C34.017 29.1286 33.9296 29.1658 33.8325 29.1926C33.5412 28.9613 33.0701 28.8357 32.5493 28.9059C31.8753 28.9969 31.395 29.3733 31.3418 29.7901C30.7036 29.9846 30.2708 30.4059 30.353 30.8519C30.4307 31.2733 30.9422 31.5629 31.5782 31.6102C31.8599 31.9668 32.4832 32.172 33.1736 32.079C33.7995 31.9942 34.2826 31.6913 34.4642 31.3295C34.6343 31.3517 34.8138 31.3533 35.0004 31.327C35.7152 31.2279 36.2177 30.7856 36.1234 30.3418C36.0842 30.16 35.9347 30.0164 35.7427 29.9053ZM41.4344 30.0279C41.4237 30.0055 41.4016 29.9888 41.3963 29.9662C41.3109 29.6077 41.6971 29.2399 42.258 29.1436C42.3325 29.1306 42.4018 29.137 42.4732 29.1348C42.5933 28.9136 42.8664 28.7251 43.2308 28.6598C43.7055 28.574 44.1409 28.728 44.307 29.0033C44.7885 28.9993 45.2051 29.1961 45.2895 29.5226C45.3701 29.8315 45.1224 30.1414 44.7194 30.3093C44.6439 30.6147 44.294 30.888 43.8085 30.9676C43.3681 31.0403 42.955 30.9324 42.7235 30.7251C42.6169 30.775 42.4981 30.814 42.367 30.8353C41.8619 30.9169 41.3924 30.7224 41.3176 30.4031C41.2849 30.2727 41.3392 30.1442 41.4344 30.0279Z" fill="#87C3E8"/>
<path d="M26.1416 32.8109C26.1299 32.8069 26.1164 32.7922 26.1068 32.7857C26.0671 32.7583 26.0417 32.7213 26.0262 32.6809L26.0258 32.6795L26.0281 32.6831L26.0425 32.6797L26.0425 32.6791C26.0449 32.658 26.0392 32.6361 26.0356 32.6151L26.0249 32.5197C26.0153 32.4604 25.9935 32.4047 25.9628 32.3508C25.9372 32.3056 25.9064 32.2606 25.8667 32.2229C25.8449 32.2024 25.8222 32.1825 25.7985 32.1636C25.7913 32.158 25.7625 32.1363 25.7514 32.1204C25.776 32.1328 25.7995 32.1449 25.827 32.1552L25.841 32.1508C25.8409 32.1373 25.8232 32.1233 25.8143 32.1125C25.7949 32.0888 25.7785 32.0624 25.7621 32.0373C25.7301 31.9884 25.7085 31.9359 25.6636 31.8935C25.6201 31.8524 25.5693 31.8291 25.5105 31.8077C25.4841 31.798 25.457 31.7887 25.4286 31.7839C25.4118 31.7811 25.3946 31.78 25.3775 31.7783C25.3533 31.7661 25.3288 31.755 25.3049 31.7446C25.2711 31.7299 25.2352 31.718 25.198 31.7112L25.1968 31.711C25.1818 31.7061 25.1666 31.7017 25.1495 31.6988C25.0753 31.6861 24.9969 31.6972 24.9334 31.7317C24.8952 31.7524 24.8669 31.7735 24.8201 31.7803C24.7961 31.7837 24.7686 31.7776 24.7432 31.7693C24.7412 31.7574 24.7373 31.7461 24.7307 31.7349C24.7251 31.7257 24.7193 31.7188 24.7161 31.7087C24.7134 31.7001 24.704 31.6966 24.7001 31.6891C24.7207 31.6948 24.7375 31.7048 24.7616 31.7059L24.7715 31.7008C24.7744 31.6879 24.7455 31.6794 24.7354 31.6752C24.6949 31.6586 24.6824 31.6259 24.6684 31.5921C24.6557 31.5611 24.6311 31.5411 24.6071 31.5162L24.5957 31.5071L24.6093 31.5028C24.6169 31.5053 24.6236 31.5088 24.6296 31.5135C24.6438 31.5247 24.6509 31.5392 24.663 31.5517L24.6769 31.547C24.6716 31.5147 24.6466 31.4774 24.627 31.4494C24.6133 31.4297 24.594 31.4124 24.5747 31.3965C24.5662 31.3895 24.5412 31.3817 24.5365 31.3704C24.551 31.3715 24.567 31.3724 24.5763 31.3622L24.5758 31.3575C24.5614 31.3487 24.546 31.3454 24.5295 31.34C24.5052 31.3319 24.4932 31.3128 24.4811 31.2948C24.4602 31.2638 24.4437 31.2319 24.4186 31.2028C24.4 31.1812 24.3855 31.1553 24.3583 31.1399C24.3342 31.1263 24.3608 31.136 24.3719 31.1413C24.3819 31.1461 24.3864 31.1483 24.3974 31.1474L24.4052 31.1415C24.3956 31.1167 24.3664 31.1024 24.3422 31.0881C24.3297 31.0807 24.3113 31.0698 24.2961 31.0662C24.2899 31.0647 24.2749 31.0617 24.2629 31.0577C24.2738 31.0589 24.2848 31.0593 24.2951 31.0582L24.3023 31.0514C24.297 31.0459 24.2884 31.0441 24.2807 31.0421C24.255 31.0353 24.2341 31.0193 24.2161 31.0031C24.2061 30.994 24.1975 30.993 24.1827 30.9924C24.173 30.992 24.16 30.9918 24.1474 30.9921L24.1428 30.9872L24.129 30.9654L24.0955 30.9313C24.0767 30.9006 24.0696 30.8689 24.043 30.8415C24.0336 30.8318 24.02 30.8299 24.0065 30.8349C23.9886 30.8414 24.002 30.8639 24.0048 30.8752C24.009 30.8918 23.9999 30.9106 23.9987 30.9275C23.9978 30.9404 24.0009 30.949 24.0071 30.96C23.9891 30.9626 23.9715 30.9679 23.9546 30.9745L23.9464 30.9674C23.9232 30.9496 23.9014 30.9378 23.8838 30.915C23.8713 30.8986 23.8582 30.8814 23.8379 30.8712L23.8263 30.8734C23.8152 30.8823 23.8218 30.9004 23.8223 30.9114C23.8229 30.9281 23.8246 30.9445 23.827 30.9612C23.831 30.9903 23.8451 31.003 23.8664 31.0142C23.857 31.0183 23.8479 31.023 23.8397 31.0288C23.8176 31.0448 23.7965 31.0607 23.7716 31.0734C23.7654 31.0765 23.7671 31.0815 23.7743 31.0811C23.7845 31.0806 23.7941 31.0786 23.8035 31.076C23.7908 31.0867 23.7809 31.0973 23.7681 31.1122C23.7627 31.1185 23.775 31.1185 23.7791 31.1162C23.7884 31.1107 23.7985 31.1063 23.8088 31.1023C23.7881 31.1181 23.7684 31.1328 23.7418 31.145C23.736 31.1477 23.7375 31.1535 23.7447 31.1527C23.7572 31.1511 23.7695 31.1483 23.7817 31.1449L23.7803 31.146C23.7699 31.1545 23.7437 31.1665 23.739 31.1785C23.7338 31.1924 23.7337 31.2063 23.7348 31.2209L23.7343 31.222L23.7244 31.2382L23.7198 31.2438L23.7104 31.2533C23.6885 31.2695 23.6699 31.288 23.652 31.3069C23.6288 31.3301 23.607 31.354 23.5815 31.3761L23.5522 31.4007C23.5312 31.4162 23.5158 31.4309 23.5004 31.4532C23.4904 31.4674 23.4815 31.48 23.4798 31.4966C23.4786 31.5091 23.4912 31.5207 23.501 31.5319L23.5061 31.545C23.5143 31.5673 23.5089 31.5895 23.5224 31.6106C23.533 31.6272 23.5687 31.6653 23.5965 31.6579L23.6138 31.6518L23.6189 31.6551C23.6325 31.6632 23.656 31.6572 23.6715 31.6587C23.7052 31.6619 23.7298 31.6389 23.7431 31.6163L23.7511 31.6037C23.825 31.5809 23.8986 31.5573 23.9741 31.5383L23.9765 31.5377C24.007 31.5485 24.0419 31.5489 24.075 31.5415L24.0828 31.5721C24.0847 31.6079 24.0822 31.6442 24.0877 31.6795C24.0968 31.7394 24.099 31.7992 24.1146 31.8584C24.1252 31.899 24.134 31.9399 24.1432 31.9809C24.1395 32.0049 24.1338 32.0285 24.1263 32.0522C24.1176 32.0702 24.1069 32.0876 24.0941 32.1052C24.0715 32.1363 24.0572 32.1846 24.0516 32.22C24.0447 32.2647 24.0447 32.3195 24.06 32.3627L24.0656 32.3754L24.0673 32.4041C24.0682 32.4225 24.0784 32.4429 24.0896 32.4613C24.1003 32.5056 24.0926 32.5464 24.0953 32.5907C24.0978 32.6316 24.1101 32.6668 24.1266 32.7052C24.1391 32.7342 24.1521 32.7632 24.1653 32.7921L24.1688 32.8069C24.1771 32.8388 24.1886 32.87 24.1906 32.9029C24.1943 32.9633 24.2209 33.0228 24.1909 33.0811C24.1838 33.0949 24.1867 33.1191 24.1911 33.1328C24.1979 33.1542 24.1964 33.174 24.2115 33.1933L24.2177 33.2012C24.2228 33.216 24.2288 33.2308 24.2331 33.2457C24.2412 33.2742 24.2456 33.3038 24.2488 33.3329L24.2491 33.3368L24.2489 33.3374C24.2501 33.3572 24.2475 33.3768 24.2457 33.3967C24.2437 33.4193 24.2293 33.4452 24.2403 33.4669C24.2561 33.4978 24.2664 33.5333 24.2441 33.5648C24.2327 33.5809 24.2152 33.5904 24.217 33.6101L24.2182 33.6125L24.2172 33.6436C24.2158 33.6601 24.2138 33.6759 24.2098 33.6923C24.2079 33.7 24.218 33.7068 24.2255 33.7087C24.2347 33.7112 24.2471 33.7106 24.2566 33.7108C24.2693 33.7112 24.2818 33.7145 24.2944 33.7134C24.3103 33.7121 24.3751 33.7044 24.3789 33.6858C24.3815 33.6727 24.3793 33.6575 24.3785 33.6444C24.3777 33.6313 24.3798 33.6168 24.376 33.6039L24.3775 33.5996C24.3659 33.5764 24.3557 33.5548 24.3492 33.5319L24.3514 33.5049L24.3525 33.4985C24.3612 33.4891 24.3666 33.4757 24.3699 33.4589C24.3739 33.4389 24.3622 33.4204 24.3548 33.4023C24.3441 33.3761 24.3477 33.3405 24.344 33.3128C24.3403 33.2851 24.3396 33.2577 24.339 33.2298C24.3387 33.2112 24.3507 33.1859 24.3503 33.1658C24.3546 33.1523 24.3561 33.1379 24.3555 33.1267C24.3548 33.1149 24.3566 33.0964 24.3526 33.0815L24.353 33.0792C24.3577 33.0532 24.3413 33.0349 24.3363 33.0099L24.3329 32.993C24.3374 32.9545 24.3442 32.9156 24.3462 32.8769C24.349 32.822 24.3532 32.7638 24.344 32.7089C24.3512 32.6941 24.3594 32.6798 24.3651 32.6645C24.3692 32.6534 24.372 32.6418 24.3736 32.63C24.3998 32.6191 24.4351 32.6208 24.4633 32.6243C24.4721 32.6254 24.48 32.6272 24.4875 32.6293L24.495 32.6392C24.5122 32.6586 24.5286 32.6753 24.5407 32.6977L24.5525 32.7211C24.5649 32.8071 24.5775 32.893 24.5902 32.9789L24.5907 33.0001L24.5905 33.0028C24.5853 33.0253 24.5757 33.0478 24.5676 33.0689C24.5632 33.0803 24.5658 33.0932 24.5681 33.1048C24.5717 33.1226 24.5722 33.141 24.5773 33.1585C24.581 33.1711 24.5898 33.1798 24.5988 33.1902C24.6045 33.197 24.609 33.2041 24.6132 33.2114C24.6274 33.2506 24.6305 33.297 24.6316 33.3319C24.6324 33.3577 24.6372 33.3828 24.6409 33.4084L24.6429 33.4315L24.6414 33.4378C24.6367 33.4527 24.6268 33.4669 24.6269 33.4826C24.6269 33.4922 24.6326 33.5079 24.6419 33.5206C24.6478 33.5375 24.6463 33.5575 24.646 33.5736C24.6455 33.6011 24.6178 33.6084 24.6096 33.6322L24.6155 33.6331L24.6156 33.6382L24.6197 33.639C24.6189 33.6574 24.6156 33.6762 24.613 33.6943C24.6118 33.7024 24.6057 33.7131 24.6127 33.7181C24.6142 33.7245 24.6211 33.7282 24.6331 33.7298C24.6565 33.7329 24.6866 33.7338 24.71 33.7316C24.7412 33.7286 24.789 33.7182 24.7918 33.6943C24.7938 33.6885 24.7926 33.6818 24.7915 33.6762C24.789 33.6621 24.79 33.6236 24.7705 33.621L24.7704 33.6208L24.7805 33.6156C24.7598 33.598 24.7461 33.5762 24.7367 33.553C24.758 33.5277 24.7677 33.499 24.7593 33.4701L24.7542 33.4488C24.7469 33.4177 24.7363 33.3898 24.7343 33.3575C24.7324 33.3274 24.7262 33.2968 24.7269 33.2668C24.7272 33.249 24.7254 33.227 24.7224 33.2079L24.7293 33.1929C24.7492 33.1618 24.7313 33.1304 24.7357 33.0984C24.7407 33.0624 24.7109 33.0308 24.7096 32.9958L24.7086 32.9712L24.7165 32.9482C24.7288 32.91 24.7385 32.8728 24.7434 32.8333C24.7489 32.7885 24.7494 32.7454 24.7487 32.7003C24.7484 32.6742 24.7503 32.6467 24.7487 32.6198L24.7502 32.6199C24.8104 32.6205 24.8673 32.6151 24.9243 32.601C24.9302 32.6237 24.9368 32.6463 24.9463 32.6683C24.965 32.7111 24.992 32.75 25.0156 32.7907C25.028 32.812 25.0422 32.827 25.0423 32.8518C25.0424 32.872 25.0489 32.8931 25.0529 32.9128C25.0562 32.9286 25.0628 32.9429 25.0731 32.9557L25.0824 32.9805C25.0885 32.9962 25.0938 33.0119 25.0988 33.0278C25.103 33.0569 25.1098 33.0863 25.1119 33.1152C25.1151 33.1603 25.1221 33.208 25.1177 33.2533C25.1146 33.2865 25.0901 33.3148 25.108 33.3468C25.1337 33.3931 25.081 33.42 25.0631 33.4599L25.0751 33.4603L25.0779 33.4589L25.0595 33.4686C25.0545 33.4726 25.0536 33.4777 25.0519 33.4828C25.0444 33.508 25.0336 33.5294 25.0206 33.5529C25.0109 33.5706 25.1031 33.5569 25.1104 33.556C25.1439 33.5517 25.2049 33.5538 25.2179 33.5181C25.2251 33.4983 25.2266 33.4792 25.2079 33.4641C25.1927 33.4518 25.1854 33.4432 25.1903 33.4249L25.1928 33.4149C25.1987 33.4102 25.2083 33.4133 25.2152 33.4114C25.2315 33.407 25.229 33.3842 25.2305 33.3734C25.2385 33.3171 25.2263 33.2608 25.2302 33.2044C25.2351 33.1362 25.217 33.0675 25.2216 32.9988C25.2237 32.9686 25.2232 32.9373 25.2229 32.907C25.2226 32.8824 25.2244 32.8587 25.22 32.8346C25.2233 32.8151 25.2234 32.7976 25.2087 32.7793C25.1869 32.7523 25.1647 32.7158 25.1587 32.6837C25.1471 32.6213 25.1656 32.5573 25.2046 32.504C25.2228 32.4789 25.253 32.4633 25.2696 32.4374L25.2778 32.4211C25.3012 32.4525 25.3269 32.483 25.3485 32.5151L25.3548 32.524C25.3632 32.5764 25.38 32.6265 25.393 32.6791L25.3932 32.6798C25.3974 32.7094 25.4012 32.7391 25.4058 32.7687L25.4093 32.7843L25.4069 32.8074C25.4043 32.822 25.3969 32.8379 25.3954 32.8519C25.3909 32.8951 25.4036 32.9358 25.4039 32.9786C25.4039 32.9991 25.4208 33.0131 25.4327 33.0297C25.4388 33.0382 25.4432 33.0466 25.4472 33.0551L25.4561 33.122C25.4614 33.1507 25.456 33.1893 25.4672 33.2193C25.4682 33.2405 25.468 33.2616 25.4627 33.2824C25.4548 33.3126 25.4504 33.3334 25.4636 33.3635L25.4677 33.3728C25.468 33.3873 25.4653 33.4015 25.4618 33.417C25.4578 33.4342 25.4437 33.4538 25.4461 33.4715L25.4516 33.4727C25.445 33.4938 25.4453 33.5219 25.4498 33.5407C25.4522 33.5501 25.4532 33.5517 25.465 33.5525C25.4847 33.5541 25.5047 33.5552 25.5243 33.5562C25.5476 33.5575 25.5911 33.5434 25.6026 33.5261C25.6061 33.5208 25.6034 33.4993 25.6033 33.4938C25.6028 33.4773 25.5994 33.4635 25.5938 33.4481L25.5955 33.4453C25.5945 33.4402 25.5908 33.4378 25.5861 33.4344C25.5746 33.4261 25.5682 33.4179 25.563 33.4078L25.5538 33.3736C25.5695 33.3506 25.576 33.3325 25.5688 33.3055C25.5639 33.2869 25.5545 33.2685 25.5443 33.2508C25.5411 33.2261 25.5342 33.2011 25.5328 33.1773C25.5298 33.1295 25.5243 33.0803 25.5282 33.0326C25.53 33.0087 25.5421 32.9861 25.5452 32.9622C25.5477 32.9424 25.5515 32.9225 25.5524 32.9026C25.5534 32.8774 25.5441 32.8526 25.5369 32.8286C25.5319 32.8123 25.5309 32.7942 25.5306 32.7764C25.5408 32.7462 25.5559 32.7178 25.5701 32.6888C25.5888 32.6507 25.587 32.5957 25.5725 32.5503L25.5719 32.5461C25.568 32.513 25.5767 32.4717 25.5841 32.4392L25.5901 32.4077C25.5911 32.4189 25.5924 32.4301 25.5945 32.4413L25.595 32.4418C25.5978 32.4984 25.6229 32.5555 25.6533 32.6042L25.6678 32.6003C25.6662 32.5831 25.6717 32.5675 25.6771 32.5517C25.6841 32.5864 25.6913 32.6208 25.696 32.6561C25.6982 32.6728 25.7009 32.6894 25.7006 32.7063C25.7005 32.7164 25.6981 32.7293 25.703 32.7388L25.7159 32.7368C25.7402 32.723 25.75 32.6884 25.7499 32.6654C25.7497 32.6418 25.7435 32.6194 25.738 32.5965C25.7361 32.5887 25.7277 32.5673 25.728 32.5534C25.7491 32.5754 25.7405 32.6163 25.7654 32.6346L25.7666 32.6473C25.7706 32.6991 25.797 32.7427 25.8259 32.7875C25.8526 32.8291 25.8875 32.8654 25.9271 32.8989C25.9476 32.9164 25.9917 32.9499 26.0236 32.948L26.0354 32.9432C26.0266 32.929 25.9962 32.9253 25.9809 32.9168C25.9499 32.8996 25.9245 32.8771 25.9075 32.8494C25.8896 32.82 25.8787 32.7917 25.8695 32.7597L25.8654 32.7398L25.8576 32.7311L25.8577 32.7288L25.8582 32.7291C25.8658 32.7346 25.8718 32.742 25.8779 32.7486C25.9022 32.7748 25.924 32.8026 25.9465 32.8297C25.9618 32.8483 25.9805 32.8677 25.9922 32.888C25.9982 32.8987 26.0023 32.92 26.0162 32.9256L26.0302 32.9217C26.0373 32.8889 26.0296 32.8514 26.0165 32.8204C26.0053 32.7934 25.9832 32.7697 25.9671 32.7447L25.9773 32.7537C25.997 32.7707 26.0222 32.7821 26.0465 32.794C26.0767 32.8087 26.1159 32.8393 26.1536 32.8308L26.162 32.8264C26.1585 32.8171 26.1524 32.8146 26.1416 32.8109ZM23.9909 31.014C23.8479 30.871 23.7055 30.7275 23.5636 30.5838C23.6586 30.7455 23.7541 30.907 23.8502 31.0682L23.9909 31.014Z" fill="#BAB9D6"/>
<path d="M36.1055 51.1192L32.5458 55.2121L34.2789 56.2762L36.5042 53.7177L39.3891 55.4923L40.726 53.9573L36.1055 51.1192ZM35.585 47.7257L32.0254 51.8188L33.7583 52.8828L35.9836 50.3243L38.8686 52.0988L40.2055 50.5639L35.585 47.7257ZM33.7034 17.3222L31.4781 19.8807L28.5931 18.1061L27.2562 19.6411L31.8767 22.4793L35.4363 18.3862L33.7034 17.3222ZM33.1828 13.9287L30.9575 16.4873L28.0725 14.7127L26.7356 16.2476L31.3561 19.0858L34.9158 14.9927L33.1828 13.9287Z" fill="#76A1C4"/>
<defs>
<filter id="filter0_dd_199_233" x="3.38208" y="4.37732" width="62.2358" height="63.2358" filterUnits="userSpaceOnUse" color-interpolation-filters="sRGB">
<feFlood flood-opacity="0" result="BackgroundImageFix"/>
<feColorMatrix in="SourceAlpha" type="matrix" values="0 0 0 0 0 0 0 0 0 0 0 0 0 0 0 0 0 0 127 0" result="hardAlpha"/>
<feOffset dx="-1" dy="-1"/>
<feGaussianBlur stdDeviation="1.5"/>
<feColorMatrix type="matrix" values="0 0 0 0 0 0 0 0 0 0 0 0 0 0 0 0 0 0 0.317623 0"/>
<feBlend mode="normal" in2="BackgroundImageFix" result="effect1_dropShadow_199_233"/>
<feColorMatrix in="SourceAlpha" type="matrix" values="0 0 0 0 0 0 0 0 0 0 0 0 0 0 0 0 0 0 127 0" result="hardAlpha"/>
<feOffset dx="1" dy="2"/>
<feGaussianBlur stdDeviation="2"/>
<feColorMatrix type="matrix" values="0 0 0 0 0 0 0 0 0 0 0 0 0 0 0 0 0 0 0.293133 0"/>
<feBlend mode="normal" in2="effect1_dropShadow_199_233" result="effect2_dropShadow_199_233"/>
<feBlend mode="normal" in="SourceGraphic" in2="effect2_dropShadow_199_233" result="shape"/>
</filter>
</defs>
</svg>
