<svg width="84" height="32" viewBox="0 0 84 32" fill="none" xmlns="http://www.w3.org/2000/svg">
<mask id="path-1-outside-1_117_13" maskUnits="userSpaceOnUse" x="1" y="5" width="73" height="22" fill="black">
<rect fill="white" x="1" y="5" width="73" height="22"/>
<path d="M5.97222 5.77778V26H1.80556V5.77778H5.97222ZM18.0833 5.77778L10.0694 15.7639L5.44444 20.7361L4.69444 16.7917L7.81944 12.5139L12.9722 5.77778H18.0833ZM13.3472 26L7.38889 16.6528L10.4722 14.0694L18.2778 26H13.3472ZM22.6667 5.77778L26.8889 15L31.1111 5.77778H35.6528L29 18.6389V26H24.7778V18.6389L18.1111 5.77778H22.6667ZM37.5 5.77778H45.0417C46.588 5.77778 47.9167 6.00926 49.0278 6.47222C50.1481 6.93519 51.0093 7.62037 51.6111 8.52778C52.213 9.43519 52.5139 10.5509 52.5139 11.875C52.5139 12.9583 52.3287 13.8889 51.9583 14.6667C51.5972 15.4352 51.0833 16.0787 50.4167 16.5972C49.7593 17.1065 48.9861 17.5139 48.0972 17.8194L46.7778 18.5139H40.2222L40.1944 15.2639H45.0694C45.8009 15.2639 46.4074 15.1343 46.8889 14.875C47.3704 14.6157 47.7315 14.2546 47.9722 13.7917C48.2222 13.3287 48.3472 12.7917 48.3472 12.1806C48.3472 11.5324 48.2269 10.9722 47.9861 10.5C47.7454 10.0278 47.3796 9.66667 46.8889 9.41667C46.3981 9.16667 45.7824 9.04167 45.0417 9.04167H41.6667V26H37.5V5.77778ZM48.8056 26L44.1944 16.9861L48.5972 16.9583L53.2639 25.8056V26H48.8056ZM63.9444 9.23611L58.4444 26H54.0139L61.5278 5.77778H64.3472L63.9444 9.23611ZM68.5139 26L63 9.23611L62.5556 5.77778H65.4028L72.9583 26H68.5139ZM68.2639 18.4722V21.7361H57.5833V18.4722H68.2639Z"/>
</mask>
<path d="M5.97222 5.77778V26H1.80556V5.77778H5.97222ZM18.0833 5.77778L10.0694 15.7639L5.44444 20.7361L4.69444 16.7917L7.81944 12.5139L12.9722 5.77778H18.0833ZM13.3472 26L7.38889 16.6528L10.4722 14.0694L18.2778 26H13.3472ZM22.6667 5.77778L26.8889 15L31.1111 5.77778H35.6528L29 18.6389V26H24.7778V18.6389L18.1111 5.77778H22.6667ZM37.5 5.77778H45.0417C46.588 5.77778 47.9167 6.00926 49.0278 6.47222C50.1481 6.93519 51.0093 7.62037 51.6111 8.52778C52.213 9.43519 52.5139 10.5509 52.5139 11.875C52.5139 12.9583 52.3287 13.8889 51.9583 14.6667C51.5972 15.4352 51.0833 16.0787 50.4167 16.5972C49.7593 17.1065 48.9861 17.5139 48.0972 17.8194L46.7778 18.5139H40.2222L40.1944 15.2639H45.0694C45.8009 15.2639 46.4074 15.1343 46.8889 14.875C47.3704 14.6157 47.7315 14.2546 47.9722 13.7917C48.2222 13.3287 48.3472 12.7917 48.3472 12.1806C48.3472 11.5324 48.2269 10.9722 47.9861 10.5C47.7454 10.0278 47.3796 9.66667 46.8889 9.41667C46.3981 9.16667 45.7824 9.04167 45.0417 9.04167H41.6667V26H37.5V5.77778ZM48.8056 26L44.1944 16.9861L48.5972 16.9583L53.2639 25.8056V26H48.8056ZM63.9444 9.23611L58.4444 26H54.0139L61.5278 5.77778H64.3472L63.9444 9.23611ZM68.5139 26L63 9.23611L62.5556 5.77778H65.4028L72.9583 26H68.5139ZM68.2639 18.4722V21.7361H57.5833V18.4722H68.2639Z" fill="url(#paint0_linear_117_13)"/>
<path d="M5.97222 5.77778H6.07222V5.67778H5.97222V5.77778ZM5.97222 26V26.1H6.07222V26H5.97222ZM1.80556 26H1.70556V26.1H1.80556V26ZM1.80556 5.77778V5.67778H1.70556V5.77778H1.80556ZM18.0833 5.77778L18.1613 5.84037L18.2918 5.67778H18.0833V5.77778ZM10.0694 15.7639L10.1429 15.8322L10.1474 15.8265L10.0694 15.7639ZM5.44444 20.7361L5.3462 20.7548L5.38311 20.9489L5.51767 20.8042L5.44444 20.7361ZM4.69444 16.7917L4.6137 16.7327L4.5881 16.7677L4.5962 16.8103L4.69444 16.7917ZM7.81944 12.5139L7.74 12.4531L7.7387 12.4549L7.81944 12.5139ZM12.9722 5.77778V5.67778H12.9228L12.8928 5.71702L12.9722 5.77778ZM13.3472 26L13.2629 26.0538L13.2924 26.1H13.3472V26ZM7.38889 16.6528L7.32467 16.5761L7.25738 16.6325L7.30456 16.7065L7.38889 16.6528ZM10.4722 14.0694L10.5559 14.0147L10.4943 13.9205L10.408 13.9928L10.4722 14.0694ZM18.2778 26V26.1H18.4627L18.3615 25.9453L18.2778 26ZM5.87222 5.77778V26H6.07222V5.77778H5.87222ZM5.97222 25.9H1.80556V26.1H5.97222V25.9ZM1.90556 26V5.77778H1.70556V26H1.90556ZM1.80556 5.87778H5.97222V5.67778H1.80556V5.87778ZM18.0053 5.71519L9.99145 15.7013L10.1474 15.8265L18.1613 5.84037L18.0053 5.71519ZM9.99622 15.6958L5.37122 20.668L5.51767 20.8042L10.1427 15.832L9.99622 15.6958ZM5.54268 20.7174L4.79268 16.773L4.5962 16.8103L5.3462 20.7548L5.54268 20.7174ZM4.77519 16.8507L7.90019 12.5729L7.7387 12.4549L4.6137 16.7327L4.77519 16.8507ZM7.89887 12.5746L13.0516 5.83853L12.8928 5.71702L7.74002 12.4531L7.89887 12.5746ZM12.9722 5.87778H18.0833V5.67778H12.9722V5.87778ZM13.4315 25.9462L7.47321 16.599L7.30456 16.7065L13.2629 26.0538L13.4315 25.9462ZM7.45311 16.7294L10.5364 14.1461L10.408 13.9928L7.32467 16.5761L7.45311 16.7294ZM10.3885 14.1242L18.1941 26.0547L18.3615 25.9453L10.5559 14.0147L10.3885 14.1242ZM18.2778 25.9H13.3472V26.1H18.2778V25.9ZM22.6667 5.77778L22.7576 5.73615L22.7309 5.67778H22.6667V5.77778ZM26.8889 15L26.798 15.0416L26.8889 15.2402L26.9798 15.0416L26.8889 15ZM31.1111 5.77778V5.67778H31.0469L31.0202 5.73615L31.1111 5.77778ZM35.6528 5.77778L35.7416 5.82372L35.8171 5.67778H35.6528V5.77778ZM29 18.6389L28.9112 18.5929L28.9 18.6146V18.6389H29ZM29 26V26.1H29.1V26H29ZM24.7778 26H24.6778V26.1H24.7778V26ZM24.7778 18.6389H24.8778V18.6145L24.8666 18.5929L24.7778 18.6389ZM18.1111 5.77778V5.67778H17.9466L18.0223 5.8238L18.1111 5.77778ZM22.5757 5.81941L26.798 15.0416L26.9798 14.9584L22.7576 5.73615L22.5757 5.81941ZM26.9798 15.0416L31.202 5.81941L31.0202 5.73615L26.798 14.9584L26.9798 15.0416ZM31.1111 5.87778H35.6528V5.67778H31.1111V5.87778ZM35.564 5.73183L28.9112 18.5929L29.0888 18.6848L35.7416 5.82372L35.564 5.73183ZM28.9 18.6389V26H29.1V18.6389H28.9ZM29 25.9H24.7778V26.1H29V25.9ZM24.8778 26V18.6389H24.6778V26H24.8778ZM24.8666 18.5929L18.1999 5.73176L18.0223 5.8238L24.689 18.6849L24.8666 18.5929ZM18.1111 5.87778H22.6667V5.67778H18.1111V5.87778ZM37.5 5.77778V5.67778H37.4V5.77778H37.5ZM49.0278 6.47222L48.9893 6.56453L48.9896 6.56464L49.0278 6.47222ZM51.6111 8.52778L51.5278 8.58305L51.6111 8.52778ZM51.9583 14.6667L51.868 14.6237L51.8678 14.6241L51.9583 14.6667ZM50.4167 16.5972L50.4779 16.6763L50.4781 16.6762L50.4167 16.5972ZM48.0972 17.8194L48.0647 17.7249L48.0574 17.7274L48.0506 17.731L48.0972 17.8194ZM46.7778 18.5139V18.6139H46.8025L46.8244 18.6024L46.7778 18.5139ZM40.2222 18.5139L40.1222 18.5147L40.1231 18.6139H40.2222V18.5139ZM40.1944 15.2639V15.1639H40.0936L40.0944 15.2647L40.1944 15.2639ZM47.9722 13.7917L47.8842 13.7441L47.8835 13.7455L47.9722 13.7917ZM41.6667 9.04167V8.94167H41.5667V9.04167H41.6667ZM41.6667 26V26.1H41.7667V26H41.6667ZM37.5 26H37.4V26.1H37.5V26ZM48.8056 26L48.7165 26.0455L48.7444 26.1H48.8056V26ZM44.1944 16.9861L44.1938 16.8861L44.0315 16.8871L44.1054 17.0317L44.1944 16.9861ZM48.5972 16.9583L48.6857 16.9117L48.6573 16.858L48.5966 16.8583L48.5972 16.9583ZM53.2639 25.8056H53.3639V25.7808L53.3523 25.7589L53.2639 25.8056ZM53.2639 26V26.1H53.3639V26H53.2639ZM37.5 5.87778H45.0417V5.67778H37.5V5.87778ZM45.0417 5.87778C46.5784 5.87778 47.8933 6.10787 48.9893 6.56453L49.0662 6.37991C47.94 5.91065 46.5976 5.67778 45.0417 5.67778V5.87778ZM48.9896 6.56464C50.0937 7.02089 50.9382 7.6941 51.5278 8.58305L51.6944 8.4725C51.0804 7.54664 50.2026 6.84948 49.066 6.3798L48.9896 6.56464ZM51.5278 8.58305C52.1166 9.47083 52.4139 10.5663 52.4139 11.875H52.6139C52.6139 10.5356 52.3093 9.39954 51.6944 8.4725L51.5278 8.58305ZM52.4139 11.875C52.4139 12.9472 52.2306 13.8623 51.868 14.6237L52.0486 14.7097C52.4268 13.9155 52.6139 12.9695 52.6139 11.875H52.4139ZM51.8678 14.6241C51.5134 15.3785 51.0094 16.0095 50.3553 16.5183L50.4781 16.6762C51.1572 16.1479 51.6811 15.4919 52.0488 14.7092L51.8678 14.6241ZM50.3554 16.5182C49.7077 17.0199 48.9446 17.4224 48.0647 17.7249L48.1297 17.914C49.0276 17.6054 49.8108 17.1931 50.4779 16.6763L50.3554 16.5182ZM48.0506 17.731L46.7312 18.4254L46.8244 18.6024L48.1438 17.9079L48.0506 17.731ZM46.7778 18.4139H40.2222V18.6139H46.7778V18.4139ZM40.3222 18.513L40.2944 15.263L40.0944 15.2647L40.1222 18.5147L40.3222 18.513ZM40.1944 15.3639H45.0694V15.1639H40.1944V15.3639ZM45.0694 15.3639C45.8121 15.3639 46.4362 15.2324 46.9363 14.963L46.8415 14.787C46.3787 15.0362 45.7897 15.1639 45.0694 15.1639V15.3639ZM46.9363 14.963C47.4345 14.6948 47.8105 14.3194 48.0609 13.8378L47.8835 13.7455C47.6525 14.1898 47.3062 14.5367 46.8415 14.787L46.9363 14.963ZM48.0602 13.8392C48.3193 13.3594 48.4472 12.8056 48.4472 12.1806H48.2472C48.2472 12.7778 48.1252 13.298 47.8842 13.7442L48.0602 13.8392ZM48.4472 12.1806C48.4472 11.5201 48.3245 10.9437 48.0752 10.4546L47.897 10.5454C48.1292 11.0008 48.2472 11.5447 48.2472 12.1806H48.4472ZM48.0752 10.4546C47.8245 9.96278 47.443 9.58675 46.9343 9.32756L46.8435 9.50577C47.3162 9.74659 47.6663 10.0928 47.897 10.5454L48.0752 10.4546ZM46.9343 9.32756C46.4255 9.06837 45.793 8.94167 45.0417 8.94167V9.14167C45.7718 9.14167 46.3708 9.26497 46.8435 9.50577L46.9343 9.32756ZM45.0417 8.94167H41.6667V9.14167H45.0417V8.94167ZM41.5667 9.04167V26H41.7667V9.04167H41.5667ZM41.6667 25.9H37.5V26.1H41.6667V25.9ZM37.6 26V5.77778H37.4V26H37.6ZM48.8946 25.9545L44.2835 16.9406L44.1054 17.0317L48.7165 26.0455L48.8946 25.9545ZM44.1951 17.0861L48.5979 17.0583L48.5966 16.8583L44.1938 16.8861L44.1951 17.0861ZM48.5088 17.005L53.1754 25.8522L53.3523 25.7589L48.6857 16.9117L48.5088 17.005ZM53.1639 25.8056V26H53.3639V25.8056H53.1639ZM53.2639 25.9H48.8056V26.1H53.2639V25.9ZM63.9444 9.23611L64.0395 9.26728L64.0426 9.2577L64.0438 9.24768L63.9444 9.23611ZM58.4444 26V26.1H58.5169L58.5395 26.0312L58.4444 26ZM54.0139 26L53.9202 25.9652L53.8701 26.1H54.0139V26ZM61.5278 5.77778V5.67778H61.4583L61.434 5.74295L61.5278 5.77778ZM64.3472 5.77778L64.4466 5.78935L64.4595 5.67778H64.3472V5.77778ZM68.5139 26L68.4189 26.0312L68.4415 26.1H68.5139V26ZM63 9.23611L62.9008 9.24886L62.902 9.25831L62.905 9.26736L63 9.23611ZM62.5556 5.77778V5.67778H62.4419L62.4564 5.79052L62.5556 5.77778ZM65.4028 5.77778L65.4965 5.74278L65.4722 5.67778H65.4028V5.77778ZM72.9583 26V26.1H73.1024L73.052 25.965L72.9583 26ZM68.2639 18.4722H68.3639V18.3722H68.2639V18.4722ZM68.2639 21.7361V21.8361H68.3639V21.7361H68.2639ZM57.5833 21.7361H57.4833V21.8361H57.5833V21.7361ZM57.5833 18.4722V18.3722H57.4833V18.4722H57.5833ZM63.8494 9.20494L58.3494 25.9688L58.5395 26.0312L64.0395 9.26728L63.8494 9.20494ZM58.4444 25.9H54.0139V26.1H58.4444V25.9ZM54.1076 26.0348L61.6215 5.81261L61.434 5.74295L53.9202 25.9652L54.1076 26.0348ZM61.5278 5.87778H64.3472V5.67778H61.5278V5.87778ZM64.2479 5.76621L63.8451 9.22454L64.0438 9.24768L64.4466 5.78935L64.2479 5.76621ZM68.6089 25.9688L63.095 9.20487L62.905 9.26736L68.4189 26.0312L68.6089 25.9688ZM63.0992 9.22336L62.6547 5.76503L62.4564 5.79052L62.9008 9.24886L63.0992 9.22336ZM62.5556 5.87778H65.4028V5.67778H62.5556V5.87778ZM65.3091 5.81278L72.8647 26.035L73.052 25.965L65.4965 5.74278L65.3091 5.81278ZM72.9583 25.9H68.5139V26.1H72.9583V25.9ZM68.1639 18.4722V21.7361H68.3639V18.4722H68.1639ZM68.2639 21.6361H57.5833V21.8361H68.2639V21.6361ZM57.6833 21.7361V18.4722H57.4833V21.7361H57.6833ZM57.5833 18.5722H68.2639V18.3722H57.5833V18.5722Z" fill="black" mask="url(#path-1-outside-1_117_13)"/>
<defs>
<linearGradient id="paint0_linear_117_13" x1="2.80707e-08" y1="16.8889" x2="73.7488" y2="14.917" gradientUnits="userSpaceOnUse">
<stop offset="0.0436255" stop-color="#FF75C3"/>
<stop offset="0.242389" stop-color="#FFA647"/>
<stop offset="0.414088" stop-color="#FFE83F"/>
<stop offset="0.561962" stop-color="#9FFF5B"/>
<stop offset="0.709941" stop-color="#70E2FF"/>
<stop offset="0.86889" stop-color="#CD93FF"/>
</linearGradient>
</defs>
</svg>
