<svg width="26" height="26" viewBox="0 0 26 26" fill="none" xmlns="http://www.w3.org/2000/svg">
<path d="M21.3796 16.8762C21.0572 16.5539 20.6218 16.3763 20.1539 16.3763C19.6549 16.3763 19.1825 16.5745 18.8237 16.9342L17.6378 18.1219C17.2621 18.4982 16.7624 18.7055 16.2309 18.7055C15.8803 18.7056 15.5345 18.612 15.231 18.435C13.9385 17.6809 12.4105 16.7029 10.878 15.1659C9.47598 13.7574 8.59587 12.4517 7.63019 10.8013C7.17094 10.0163 7.29803 9.01958 7.93931 8.37738L9.11783 7.19704C9.83624 6.47655 9.86076 5.32632 9.17224 4.63335L5.05252 0.501425C4.73038 0.178357 4.29538 0 3.82755 0C3.32877 0 2.85603 0.197612 2.49663 0.558123C1.19002 1.87651 0.315556 2.89429 0.081512 4.96641C-0.449356 9.37616 1.58164 13.4241 7.09162 18.95C13.6212 25.4985 19.0727 26 20.5879 26H20.5882C20.8583 26 21.017 25.9919 21.0462 25.9888C23.0264 25.7528 23.9492 25.0419 25.4472 23.5719C26.1628 22.8519 26.1874 21.7004 25.4992 21.0079L21.3796 16.8762Z" fill="white"/>
</svg>
