<svg width="26" height="26" viewBox="0 0 26 26" fill="none" xmlns="http://www.w3.org/2000/svg">
<path d="M13.0001 10.8333C13.5984 10.8333 14.0834 11.3183 14.0834 11.9167V18.4167C14.0834 19.015 13.5984 19.5 13.0001 19.5C12.4018 19.5 11.9167 19.015 11.9167 18.4167V11.9167C11.9167 11.3183 12.4018 10.8333 13.0001 10.8333Z" fill="white"/>
<path d="M13.0001 8.66666C13.5984 8.66666 14.0834 8.18163 14.0834 7.58332C14.0834 6.98501 13.5984 6.49999 13.0001 6.49999C12.4018 6.49999 11.9167 6.98501 11.9167 7.58332C11.9167 8.18163 12.4018 8.66666 13.0001 8.66666Z" fill="white"/>
<path fill-rule="evenodd" clip-rule="evenodd" d="M13.0001 23.8333C18.9832 23.8333 23.8334 18.9831 23.8334 13C23.8334 7.0169 18.9832 2.16666 13.0001 2.16666C7.017 2.16666 2.16675 7.0169 2.16675 13C2.16675 18.9831 7.017 23.8333 13.0001 23.8333ZM13.0001 21.6667C17.7865 21.6667 21.6667 17.7865 21.6667 13C21.6667 8.21352 17.7865 4.33332 13.0001 4.33332C8.21361 4.33332 4.33341 8.21352 4.33341 13C4.33341 17.7865 8.21361 21.6667 13.0001 21.6667Z" fill="white"/>
</svg>
