<svg width="26" height="26" viewBox="0 0 26 26" fill="none" xmlns="http://www.w3.org/2000/svg">
<path d="M22.0996 26H16.8997C16.555 26 16.2244 25.863 15.9805 25.6192C15.7367 25.3755 15.5998 25.0448 15.5998 24.7001V16.9002H10.3998V24.7001C10.3998 25.0448 10.2628 25.3755 10.0191 25.6192C9.77526 25.863 9.44462 26 9.09984 26H3.89994C2.866 25.9988 1.87472 25.5876 1.14359 24.8564C0.412469 24.1253 0.00120202 23.1341 2.59422e-05 22.1001V11.6139C-0.00248464 10.8216 0.17726 10.0393 0.525372 9.32755C0.873478 8.61581 1.38062 7.99372 2.00758 7.50928L10.6057 0.822155C11.2901 0.289318 12.1326 0 13 0C13.8674 0 14.7099 0.289318 15.3943 0.822155L23.9924 7.50958C24.6194 7.99396 25.1266 8.61606 25.4747 9.32779C25.8228 10.0395 26.0025 10.8218 26 11.614V22.1001C25.9988 23.1341 25.5875 24.1255 24.8563 24.8566C24.1251 25.5877 23.1337 25.9989 22.0996 26ZM18.1997 23.4H22.0996C22.4443 23.3996 22.7747 23.2626 23.0184 23.0188C23.2621 22.7751 23.3992 22.4447 23.3996 22.1001V11.6139C23.4009 11.2178 23.3111 10.8267 23.1371 10.4708C22.9631 10.115 22.7096 9.80394 22.3962 9.56172L13.798 2.87436C13.5699 2.69669 13.289 2.60021 12.9998 2.60021C12.7106 2.60021 12.4297 2.69669 12.2015 2.87436L3.60336 9.5616C3.28991 9.80376 3.03635 10.1148 2.86231 10.4706C2.68827 10.8265 2.59841 11.2176 2.5997 11.6137V22.1001C2.6001 22.4447 2.73719 22.7751 2.98089 23.0188C3.2246 23.2626 3.55504 23.3996 3.89964 23.4H7.79957V16.9002C7.80036 16.2109 8.07458 15.5501 8.56201 15.0627C9.04938 14.5752 9.71024 14.3011 10.3996 14.3003H15.5994C16.2888 14.301 16.9497 14.5752 17.4372 15.0626C17.9247 15.55 18.1989 16.2109 18.1997 16.9002V23.4Z" fill="white"/>
</svg>
